<svg xmlns="http://www.w3.org/2000/svg" xmlns:xlink="http://www.w3.org/1999/xlink" fill="none" version="1.1"
    viewBox="0 0 256 256">
    <defs>
        <clipPath id="master_svg0_7_00">
            <rect x="0" y="0" width="256" height="256" rx="0" />
        </clipPath>
        <linearGradient x1="0" y1="0" x2="1" y2="1" id="master_svg1_5_6576">
            <stop offset="0%" stop-color="#46EEA8" stop-opacity="1" />
            <stop offset="100.00004768371582%" stop-color="#00C774" stop-opacity="1" />
        </linearGradient>
    </defs>
    <g style="mix-blend-mode:passthrough" clip-path="url(#master_svg0_7_00)">
        <g>
            <path
                d="M193.933,165.157L236.381,207.772C237.416,208.811,237.416,211.929,234.31,215.047L223.957,225.441C222.922,227.52,219.816,227.52,217.745,225.441L175.297,182.827C164.944,186.984,152.52,184.906,143.202,175.551C133.885,165.157,131.814,151.64600000000002,136.99099999999999,140.213L157.697,161L172.191,146.449L152.52,126.7008C163.909,121.5039,177.368,123.5827,186.686,132.937C196.004,141.252,198.074,154.764,193.933,165.157ZM133.885,195.362L20,195.362L20,174.575C20,151.709,57.2713,133,102.8252,133C108.0018,133,113.1783,133,117.3196,134.039C114.2137,140.276,113.1783,146.512,113.1783,153.787C113.1783,170.417,121.461,186.008,133.885,195.362ZM103.5,29C108.0689,29,111.7727,32.71603,111.7727,37.3C111.7727,40.371,110.1182,43.0685,107.6364,44.4795L107.6364,49.75L111.7727,49.75C127.764,49.75,140.727,62.7561,140.727,78.8L144.864,78.8C147.148,78.8,149,80.658,149,82.95L149,95.4C149,97.692,147.148,99.55,144.864,99.55L140.727,99.55L140.727,103.7C140.727,108.284,137.023,112,132.45499999999998,112L74.5455,112C69.97659999999999,112,66.2727,108.284,66.2727,103.7L66.2727,99.55L62.1364,99.55C59.8519,99.55,58,97.692,58,95.4L58,82.95C58,80.658,59.8519,78.8,62.1364,78.8L66.2727,78.8C66.2727,62.7561,79.2361,49.75,95.2273,49.75L99.3636,49.75L99.3636,44.4795C96.8818,43.0685,95.2273,40.371,95.2273,37.3C95.2273,32.71603,98.9311,29,103.5,29ZM84.8864,74.65C79.17519999999999,74.65,74.5455,79.295,74.5455,85.025C74.5455,90.755,79.17519999999999,95.4,84.8864,95.4C90.5975,95.4,95.2273,90.755,95.2273,85.025C95.2273,79.295,90.5975,74.65,84.8864,74.65ZM122.114,74.65C116.4025,74.65,111.7727,79.295,111.7727,85.025C111.7727,90.755,116.4025,95.4,122.114,95.4C127.825,95.4,132.45499999999998,90.755,132.45499999999998,85.025C132.45499999999998,79.295,127.825,74.65,122.114,74.65Z"
                fill-rule="evenodd" fill="url(#master_svg1_5_6576)" fill-opacity="1" />
        </g>
    </g>
</svg>